<svg width="75" height="75" xmlns="http://www.w3.org/2000/svg" xmlns:xlink="http://www.w3.org/1999/xlink">
 <g>
  <title>background</title>
  <rect fill="none" id="canvas_background" height="77" width="77" y="-1" x="-1"/>
 </g>
 <g>
  <title>Layer 1</title>
  <defs>
   <filter y="42.928894" x="42.928955" width="97.071045" id="Adobe_OpacityMaskFilter" height="97.071106" filterUnits="userSpaceOnUse"/>
   <radialGradient r="106.563492" id="SVGID_2_" gradientUnits="userSpaceOnUse" gradientTransform="matrix(0.7071068 0.7071068 -0.2721382 0.2721382 39.5522003 1.4528493)" cy="70" cx="70">
    <stop stop-color="#FFFFFF" offset="0.3"/>
    <stop stop-color="#FFFFFF" stop-opacity="0" offset="0.85"/>
   </radialGradient>
   <linearGradient y2="1" y1="0.278879" x2="1" x1="0.278879" id="SVGID_3_">
    <stop stop-color="#000000" stop-opacity="0.4" offset="0"/>
    <stop stop-color="#000000" stop-opacity="0" offset="0.8"/>
   </linearGradient>
   <radialGradient r="79.556587" id="SVGID_5_" gradientUnits="userSpaceOnUse" gradientTransform="matrix(0.7071068 0.7071068 -0.3889087 0.3889087 47.7261353 -6.7210855)" cy="70" cx="70">
    <stop stop-color="#FFFFFF" offset="0.3"/>
    <stop stop-color="#FFFFFF" stop-opacity="0" offset="0.85"/>
   </radialGradient>
   <linearGradient y2="1" y1="0.278879" x2="1" x1="0.278879" id="SVGID_6_">
    <stop stop-color="#24292E" stop-opacity="0.6" offset="0"/>
    <stop stop-color="#24292E" stop-opacity="0" offset="0.5"/>
   </linearGradient>
   <linearGradient y2="1" y1="0" x2="1" x1="0" id="SVGID_9_">
    <stop stop-color="#FFFFFF" stop-opacity="0.8" offset="0"/>
    <stop stop-color="#FFFFFF" stop-opacity="0" offset="0.6"/>
   </linearGradient>
   <linearGradient y2="1" y1="0" x2="1" x1="0" id="SVGID_12_">
    <stop stop-color="#000000" stop-opacity="0" offset="0.4"/>
    <stop stop-color="#000000" stop-opacity="0.2" offset="1"/>
   </linearGradient>
   <radialGradient r="45" id="SVGID_15_" gradientUnits="userSpaceOnUse" cy="45" cx="45">
    <stop stop-color="#FFFFFF" stop-opacity="0.2" offset="0"/>
    <stop stop-color="#FFFFFF" stop-opacity="0" offset="1"/>
   </radialGradient>
   <linearGradient y2="1" y1="0" x2="1" x1="0" id="SVGID_18_">
    <stop stop-color="#FFFFFF" stop-opacity="0.8" offset="0.2"/>
    <stop stop-color="#FFFFFF" stop-opacity="0" offset="0.7"/>
   </linearGradient>
  </defs>
  <mask y="42.928894" x="42.928955" width="97.071045" maskUnits="userSpaceOnUse" id="SVGID_1_" height="97.071106">
   <g stroke="null" id="svg_2" filter="url(#Adobe_OpacityMaskFilter)">
    <rect stroke="null" x="34.999999" y="37.999997" id="svg_3" width="71" height="64.999998" fill="url(#SVGID_2_)"/>
   </g>
  </mask>
  <polygon id="svg_4" points="107,55.85809326171875 64.071044921875,12.92889404296875 9.928955078125,67.071044921875 52.85809326171875,110 107,110 " mask="url(#SVGID_1_)" fill="url(#SVGID_3_)"/>
  <defs>
   <filter y="42.928894" x="42.928955" width="97.071045" id="Adobe_OpacityMaskFilter_1_" height="97.071106" filterUnits="userSpaceOnUse"/>
  </defs>
  <mask y="42.928894" x="42.928955" width="97.071045" maskUnits="userSpaceOnUse" id="SVGID_4_" height="97.071106">
   <g id="svg_5" filter="url(#Adobe_OpacityMaskFilter_1_)">
    <rect id="svg_6" width="140" height="140" fill="url(#SVGID_5_)"/>
   </g>
  </mask>
  <polygon id="svg_7" points="107,55.85809326171875 64.071044921875,12.92889404296875 9.928955078125,67.071044921875 52.85809326171875,110 107,110 " mask="url(#SVGID_4_)" fill="url(#SVGID_6_)"/>
  <path id="svg_8" fill="#24292E" d="m57,70l-40,0c-5.52285,0 -10,-4.47715 -10,-10l0,-40c0,-5.52285 4.47715,-10 10,-10l40,0c5.52285,0 10,4.47715 10,10l0,40c0,5.52285 -4.47715,10 -10,10z"/>
  <g id="svg_9">
   <defs>
    <path id="SVGID_97_" d="m90,41c4.96262,0 9,4.03738 9,9l0,40c0,4.96262 -4.03738,9 -9,9l-40,0c-4.96262,0 -9,-4.03738 -9,-9l0,-40c0,-4.96262 4.03738,-9 9,-9l40,0m0,-1l-40,0c-5.52285,0 -10,4.47715 -10,10l0,40c0,5.52285 4.47715,10 10,10l40,0c5.52285,0 10,-4.47715 10,-10l0,-40c0,-5.52285 -4.47715,-10 -10,-10l0,0z"/>
   </defs>
   <clipPath id="SVGID_8_">
    <use x="-33" y="-30" id="svg_10" xlink:href="#SVGID_97_"/>
   </clipPath>
   <rect id="svg_11" y="-10" x="-13" width="100" height="100" fill="url(#SVGID_9_)" clip-path="url(#SVGID_8_)"/>
  </g>
  <g id="svg_12">
   <defs>
    <path id="SVGID_100_" d="m90,41c4.96262,0 9,4.03738 9,9l0,40c0,4.96262 -4.03738,9 -9,9l-40,0c-4.96262,0 -9,-4.03738 -9,-9l0,-40c0,-4.96262 4.03738,-9 9,-9l40,0m0,-1l-40,0c-5.52285,0 -10,4.47715 -10,10l0,40c0,5.52285 4.47715,10 10,10l40,0c5.52285,0 10,-4.47715 10,-10l0,-40c0,-5.52285 -4.47715,-10 -10,-10l0,0z"/>
   </defs>
   <clipPath id="SVGID_11_">
    <use x="-33" y="-30" id="svg_13" xlink:href="#SVGID_100_"/>
   </clipPath>
   <rect id="svg_14" y="-10" x="-13" width="100" height="100" fill="url(#SVGID_12_)" clip-path="url(#SVGID_11_)"/>
  </g>
  <g id="svg_15">
   <defs>
    <path id="SVGID_103_" d="m50,99c-4.9624,0 -9,-4.0376 -9,-9l0,-40c0,-4.9624 4.0376,-9 9,-9l40,0c4.9624,0 9,4.0376 9,9l0,40c0,4.9624 -4.0376,9 -9,9l-40,0z"/>
   </defs>
   <clipPath id="SVGID_14_">
    <use x="-33" y="-30" id="svg_16" xlink:href="#SVGID_103_"/>
   </clipPath>
   <circle id="svg_17" r="45" fill="url(#SVGID_15_)" cy="15" cx="12" clip-path="url(#SVGID_14_)"/>
  </g>
  <g id="svg_18">
   <defs>
    <path id="SVGID_106_" d="m90,99.1499l-40,0c-5.04541,0 -9.1499,-4.10449 -9.1499,-9.1499l0,-40c0,-5.04541 4.10449,-9.1499 9.1499,-9.1499l40,0c5.04541,0 9.1499,4.10449 9.1499,9.1499l0,40c0,5.04541 -4.10449,9.1499 -9.1499,9.1499zm-40,-58c-4.87988,0 -8.8501,3.97022 -8.8501,8.8501l0,40c0,4.87988 3.97022,8.8501 8.8501,8.8501l40,0c4.87988,0 8.8501,-3.97022 8.8501,-8.8501l0,-40c0,-4.87988 -3.97022,-8.8501 -8.8501,-8.8501l-40,0z"/>
   </defs>
   <clipPath id="SVGID_17_">
    <use x="-33" y="-30" id="svg_19" xlink:href="#SVGID_106_"/>
   </clipPath>
   <rect id="svg_20" y="-10" x="-13" width="100" height="100" fill="url(#SVGID_18_)" clip-path="url(#SVGID_17_)"/>
  </g>
  <path id="svg_21" opacity="0.12" d="m51.14374,26.34961l-25.47707,-0.93294l-7,16.16667l4.18111,13.04349l15.37317,15.37317l18.77905,0c5.52283,0 10,-4.47717 10,-10l0,-17.79413l-15.85626,-15.85626z"/>
  <path id="svg_22" fill="#FFFFFF" d="m37,20.49339c-11.05,0 -20,8.95 -20,20c0,8.85 5.725,16.32501 13.675,18.975c1,0.175 1.375,-0.42499 1.375,-0.95c0,-0.47499 -0.025,-2.04999 -0.025,-3.72499c-5.025,0.92499 -6.325,-1.225 -6.725,-2.35c-0.225,-0.575 -1.2,-2.35 -2.05,-2.82501c-0.7,-0.37499 -1.7,-1.29999 -0.025,-1.32499c1.575,-0.02501 2.7,1.44999 3.075,2.05c1.8,3.02499 4.675,2.17499 5.825,1.64999c0.175,-1.29999 0.7,-2.17499 1.275,-2.67499c-4.45,-0.5 -9.1,-2.225 -9.1,-9.875c0,-2.17501 0.775,-3.975 2.05,-5.375c-0.2,-0.5 -0.9,-2.55 0.2,-5.3c0,0 1.675,-0.525 5.5,2.05c1.6,-0.45 3.3,-0.675 5,-0.675c1.7,0 3.4,0.225 5,0.675c3.825,-2.6 5.5,-2.05 5.5,-2.05c1.09999,2.75 0.4,4.8 0.2,5.3c1.275,1.4 2.05,3.175 2.05,5.375c0,7.675 -4.675,9.375 -9.125,9.875c0.725,0.625 1.35,1.825 1.35,3.7c0,2.675 -0.025,4.825 -0.025,5.5c0,0.525 0.375,1.15 1.375,0.95c8.14111,-2.74836 13.6228,-10.38249 13.625,-18.97501c0,-11.05 -8.95,-20 -20,-20z"/>
  <path id="svg_23" opacity="0.4" fill="#24292E" d="m42,58.5184c0,0.525 0.375,1.15 1.375,0.95c6.3764,-2.1526 11.12135,-7.30241 12.87989,-13.5624c0,0 -2.27737,5.00593 -6.75489,8.719c-3.84375,3.1875 -7.5,3.8934 -7.5,3.8934z"/>
 </g>
</svg>