<svg width="75" height="75" xmlns="http://www.w3.org/2000/svg" xmlns:xlink="http://www.w3.org/1999/xlink">
 <g>
  <title>background</title>
  <rect fill="none" id="canvas_background" height="77" width="77" y="-1" x="-1"/>
 </g>
 <g>
  <title>Layer 1</title>
  <defs>
   <filter y="42.928894" x="42.928955" width="97.071045" id="Adobe_OpacityMaskFilter" height="97.071106" filterUnits="userSpaceOnUse"/>
   <radialGradient r="106.563492" id="SVGID_2_" gradientUnits="userSpaceOnUse" gradientTransform="matrix(0.7071068 0.7071068 -0.2721382 0.2721382 39.5522003 1.4528493)" cy="70" cx="70">
    <stop stop-color="#FFFFFF" offset="0.3"/>
    <stop stop-color="#FFFFFF" stop-opacity="0" offset="0.85"/>
   </radialGradient>
   <linearGradient y2="1" y1="0.278879" x2="1" x1="0.278879" id="SVGID_3_">
    <stop stop-color="#000000" stop-opacity="0.4" offset="0"/>
    <stop stop-color="#000000" stop-opacity="0" offset="0.8"/>
   </linearGradient>
   <radialGradient r="79.556587" id="SVGID_5_" gradientUnits="userSpaceOnUse" gradientTransform="matrix(0.7071068 0.7071068 -0.3889087 0.3889087 47.7261353 -6.7210855)" cy="70" cx="70">
    <stop stop-color="#FFFFFF" offset="0.3"/>
    <stop stop-color="#FFFFFF" stop-opacity="0" offset="0.85"/>
   </radialGradient>
   <linearGradient y2="1" y1="0.278879" x2="1" x1="0.278879" id="SVGID_6_">
    <stop stop-color="#006595" stop-opacity="0.6" offset="0"/>
    <stop stop-color="#006595" stop-opacity="0" offset="0.5"/>
   </linearGradient>
   <linearGradient y2="1" y1="0" x2="1" x1="0" id="SVGID_9_">
    <stop stop-color="#FFFFFF" stop-opacity="0.8" offset="0"/>
    <stop stop-color="#FFFFFF" stop-opacity="0" offset="0.6"/>
   </linearGradient>
   <linearGradient y2="1" y1="0" x2="1" x1="0" id="SVGID_12_">
    <stop stop-color="#000000" stop-opacity="0" offset="0.4"/>
    <stop stop-color="#000000" stop-opacity="0.2" offset="1"/>
   </linearGradient>
   <radialGradient r="45" id="SVGID_15_" gradientUnits="userSpaceOnUse" cy="45" cx="45">
    <stop stop-color="#FFFFFF" stop-opacity="0.2" offset="0"/>
    <stop stop-color="#FFFFFF" stop-opacity="0" offset="1"/>
   </radialGradient>
   <linearGradient y2="1" y1="0" x2="1" x1="0" id="SVGID_18_">
    <stop stop-color="#FFFFFF" stop-opacity="0.8" offset="0.2"/>
    <stop stop-color="#FFFFFF" stop-opacity="0" offset="0.7"/>
   </linearGradient>
  </defs>
  <mask y="42.928894" x="42.928955" width="97.071045" maskUnits="userSpaceOnUse" id="SVGID_1_" height="97.071106">
   <g id="svg_2" filter="url(#Adobe_OpacityMaskFilter)">
    <rect id="svg_3" width="140" height="140" fill="url(#SVGID_2_)"/>
   </g>
  </mask>
  <polygon id="svg_4" points="108,54.85809326171875 65.071044921875,11.92889404296875 10.928955078125,66.071044921875 53.85809326171875,109 108,109 " mask="url(#SVGID_1_)" fill="url(#SVGID_3_)"/>
  <defs>
   <filter y="42.928894" x="42.928955" width="97.071045" id="Adobe_OpacityMaskFilter_1_" height="97.071106" filterUnits="userSpaceOnUse"/>
  </defs>
  <mask y="42.928894" x="42.928955" width="97.071045" maskUnits="userSpaceOnUse" id="SVGID_4_" height="97.071106">
   <g id="svg_5" filter="url(#Adobe_OpacityMaskFilter_1_)">
    <rect id="svg_6" width="140" height="140" fill="url(#SVGID_5_)"/>
   </g>
  </mask>
  <polygon id="svg_7" points="108,54.85809326171875 65.071044921875,11.92889404296875 10.928955078125,66.071044921875 53.85809326171875,109 108,109 " mask="url(#SVGID_4_)" fill="url(#SVGID_6_)"/>
  <path id="svg_8" fill="#006595" d="m58,69l-40,0c-5.522846,0 -10,-4.47715 -10,-10l0,-40c0,-5.522846 4.477154,-10 10,-10l40,0c5.52285,0 10,4.477154 10,10l0,40c0,5.52285 -4.47715,10 -10,10z"/>
  <g id="svg_9">
   <defs>
    <path id="SVGID_137_" d="m90,41c4.962624,0 9,4.03738 9,9l0,40c0,4.962624 -4.037376,9 -9,9l-40,0c-4.96262,0 -9,-4.037376 -9,-9l0,-40c0,-4.96262 4.03738,-9 9,-9l40,0m0,-1l-40,0c-5.52285,0 -10,4.47715 -10,10l0,40c0,5.52285 4.47715,10 10,10l40,0c5.52285,0 10,-4.47715 10,-10l0,-40c0,-5.52285 -4.47715,-10 -10,-10l0,0z"/>
   </defs>
   <clipPath id="SVGID_8_">
    <use x="-32" y="-31" id="svg_10" xlink:href="#SVGID_137_"/>
   </clipPath>
   <rect id="svg_11" y="-11" x="-12" width="100" height="100" fill="url(#SVGID_9_)" clip-path="url(#SVGID_8_)"/>
  </g>
  <g id="svg_12">
   <defs>
    <path id="SVGID_140_" d="m90,41c4.962624,0 9,4.03738 9,9l0,40c0,4.962624 -4.037376,9 -9,9l-40,0c-4.96262,0 -9,-4.037376 -9,-9l0,-40c0,-4.96262 4.03738,-9 9,-9l40,0m0,-1l-40,0c-5.52285,0 -10,4.47715 -10,10l0,40c0,5.52285 4.47715,10 10,10l40,0c5.52285,0 10,-4.47715 10,-10l0,-40c0,-5.52285 -4.47715,-10 -10,-10l0,0z"/>
   </defs>
   <clipPath id="SVGID_11_">
    <use x="-32" y="-31" id="svg_13" xlink:href="#SVGID_140_"/>
   </clipPath>
   <rect id="svg_14" y="-11" x="-12" width="100" height="100" fill="url(#SVGID_12_)" clip-path="url(#SVGID_11_)"/>
  </g>
  <g id="svg_15">
   <defs>
    <path id="SVGID_143_" d="m50,99c-4.962402,0 -9,-4.037598 -9,-9l0,-40c0,-4.962402 4.037598,-9 9,-9l40,0c4.962402,0 9,4.037598 9,9l0,40c0,4.962402 -4.037598,9 -9,9l-40,0z"/>
   </defs>
   <clipPath id="SVGID_14_">
    <use x="-32" y="-31" id="svg_16" xlink:href="#SVGID_143_"/>
   </clipPath>
   <circle id="svg_17" r="45" fill="url(#SVGID_15_)" cy="14" cx="13" clip-path="url(#SVGID_14_)"/>
  </g>
  <g id="svg_18">
   <defs>
    <path id="SVGID_146_" d="m90,99.149902l-40,0c-5.04541,0 -9.149902,-4.104492 -9.149902,-9.149902l0,-40c0,-5.04541 4.104492,-9.149902 9.149902,-9.149902l40,0c5.04541,0 9.149902,4.104492 9.149902,9.149902l0,40c0,5.04541 -4.104492,9.149902 -9.149902,9.149902zm-40,-58c-4.879883,0 -8.850098,3.970215 -8.850098,8.850098l0,40c0,4.879883 3.970215,8.850098 8.850098,8.850098l40,0c4.879883,0 8.850098,-3.970215 8.850098,-8.850098l0,-40c0,-4.879883 -3.970215,-8.850098 -8.850098,-8.850098l-40,0z"/>
   </defs>
   <clipPath id="SVGID_17_">
    <use x="-32" y="-31" id="svg_19" xlink:href="#SVGID_146_"/>
   </clipPath>
   <rect id="svg_20" y="-11" x="-12" width="100" height="100" fill="url(#SVGID_18_)" clip-path="url(#SVGID_17_)"/>
  </g>
  <path id="svg_21" opacity="0.12" d="m57.132446,19.844177c-0.535766,-0.521911 -1.275512,-0.844726 -2.091552,-0.844726l-17.045289,0l-17.045165,0c-0.813965,0 -1.551514,0.322814 -2.085694,0.844726c-0.534057,0.521912 -0.864746,1.242981 -0.864746,2.039429l0,17.115295l0,17.115235c0,0.796448 0.330689,1.518066 0.864746,2.040527l10.845459,10.845337l28.289795,0c5.522827,0 10,-4.477173 10,-10l0,-28.288269l-10.867554,-10.867554z"/>
  <path id="svg_22" fill="#FFFFFF" d="m55.040916,18.999443l-34.090499,0c-1.627713,0 -2.950417,1.291271 -2.950417,2.884194l0,34.230506c0,1.592934 1.322704,2.886414 2.950417,2.886414l34.090499,0c1.63205,0 2.959084,-1.29348 2.959084,-2.886414l0,-34.230506c0,-1.592923 -1.327034,-2.884194 -2.959084,-2.884194zm-25.175365,34.085175l-5.937721,0l0,-19.089089l5.937721,0l0,19.089089zm-2.967747,-21.697163c-1.905388,0 -3.441986,-1.541355 -3.441986,-3.440819c0,-1.898929 1.536598,-3.440315 3.441986,-3.440315c1.897827,0 3.438649,1.541386 3.438649,3.440315c0,1.899464 -1.540822,3.440819 -3.438649,3.440819zm25.188362,21.697163l-5.931053,0l0,-9.283043c0,-2.213616 -0.039108,-5.06147 -3.083862,-5.06147c-3.087197,0 -3.558098,2.412735 -3.558098,4.903023l0,9.44149l-5.92572,0l0,-19.089089l5.68705,0l0,2.609627l0.081329,0c0.791031,-1.50071 2.727966,-3.083305 5.614273,-3.083305c6.00605,0 7.116081,3.952552 7.116081,9.093696l0,10.469071z"/>
  <path id="svg_23" opacity="0.4" fill="#006595" d="m18.504345,57.727432c0.530567,0.767853 1.428749,1.273125 2.446072,1.273125l34.090499,0c1.63205,0 2.959084,-1.29348 2.959084,-2.886414c0,0 -0.729164,0.781693 -8.708336,1.094193c-28.317627,1.109039 -30.787319,0.519096 -30.787319,0.519096z"/>
 </g>
</svg>